<svg xmlns="http://www.w3.org/2000/svg" viewBox="0 0 714 540">
  <path fill="#FFFFFF" d="M465.8,451.1c-1.7,0-3.4-0.2-5.2-0.5c-7.4-1.6-13.6-6.3-17.1-13l-70.2-137l-15.1,10.2l-56.1,37.6l1.8,58
    c0.2,4.6-1.9,9.1-5.5,12.1l-11.9,9.7c-4.4,3.6-10.2,5-15.8,3.8c-5.6-1.2-10.2-4.9-12.8-10l-27.7-56.8l-51.5-39.6
    c-4.2-3.2-6.7-8.1-6.7-13.4c-0.1-5.3,2.2-10.2,6.3-13.6l12.8-10.4c3.9-3.2,9.2-4.4,14-3.2l55.9,13.3l61.1-60.2l-121.6-97.4
    c-5.6-4.4-8.8-11.1-8.8-18.2c0-7.1,3.1-13.8,8.6-18.3c10.6-8.6,25.1-11.1,37.9-6.4l163.7,76.5l64.8-57.1
    c22.9-18.7,53-19.1,67.5-1.3c14.5,17.8,8,47.2-14.5,65.6l-65.2,57.4l38.3,172.7c1.8,12.4-3,25-12.7,32.9
    C477,449.2,471.5,451.1,465.8,451.1z M376.3,273.4c1.3,0,2.7,0.2,4,0.5c4.4,1.1,8,4.1,10.1,8.1l74.1,144.7c0.2,0.4,0.5,0.7,1,0.8
    c0.4,0.1,0.8,0,1.2-0.3c3.2-2.6,4.9-6.7,4.4-10.8l-38.6-173.9c-1.1-7.5,1.9-15.2,7.8-20l65.7-57.8c12.2-9.9,17.5-25.4,11.5-32.8
    c-6-7.4-22.2-5.3-34.1,4.4l-65.5,57.7c-6.4,5.2-14.7,6.6-22,3.9l-164.7-77c-5-1.6-10.5-0.6-14.6,2.7l127.5,102
    c3.7,3,6,7.4,6.3,12.2c0.2,4.8-1.6,9.4-5,12.8l-69.1,68.1c-4.2,4.1-10.1,5.8-15.8,4.4l-55.9-13.3l-3.8,3.1l47.4,36.4
    c1.4,1.1,2.6,2.5,3.4,4.2l26.2,53.7l3.8-3.1l-1.8-57.3c-0.2-6,2.7-11.5,7.6-14.8l81.4-54.6C370.1,274.4,373.2,273.4,376.3,273.4z"/>
</svg>
